:SAMPLES-PER-SECOND 30
:FULLY-SPECIFIED
:DEGREES
432
root  13.4272 37.4364 -7.06349 172.015 -60.5406 -176.308
RightUpLeg  -27.8807 -14.4424 6.55876
RightLeg  31.5738 -1.1973 -1.03742
RightFoot  0.711055 0.888143 -8.31463
RightToes  0.00048216 0.542163 -0.142577
Spine  14.6428 -4.51701 1.51952
Spine1  9.21821 -6.44007 8.24676
HEad  -14.8391 21.9204 -14.8996
LeftShoulder1  7.04492 -12.0175 -39.1836
LeftArm  -5.88162 5.37683 -28.5631
LeftForeArm  74.2409 -79.4133 -83.5656
LeftHand  -0.25398 0.0180481 5.50724
RightShoulder  4.59041 8.47067 32.3932
RightArm  -18.4949 -37.8373 21.8935
RightForeArm  84.6181 70.4958 141.911
RightHand  0.512765 -13.3495 -8.5394
LeftUpLeg  9.97916 12.6913 7.68259
LeftLeg  50.2536 7.4554 9.8731
LeftFoot  14.0165 1.69079 -7.74163
LeftToes  1.06243e-005 4.65856e-005 -8.18505e-006
433
root  12.1032 37.6368 -7.91921 168.714 -62.5987 -173.113
RightUpLeg  -25.1517 -16.3358 6.96696
RightLeg  33.0232 -1.617 -1.39262
RightFoot  -2.40004 0.609217 -7.96494
RightToes  0.00048216 0.542163 -0.142577
Spine  15.8604 -4.80497 4.03863
Spine1  9.28126 -6.03191 7.96979
HEad  -14.1921 20.3761 -13.5138
LeftShoulder1  7.17577 -12.1412 -39.6377
LeftArm  -5.35909 5.21365 -27.4556
LeftForeArm  72.7333 -79.3771 -82.1153
LeftHand  -0.25398 0.0180481 5.50724
RightShoulder  4.49638 8.31737 32.0948
RightArm  -17.3754 -37.2804 21.7625
RightForeArm  82.5731 70.9739 140.641
RightHand  0.551208 -13.1413 -9.2945
LeftUpLeg  2.42232 9.97341 8.50372
LeftLeg  59.7985 5.69416 10.979
LeftFoot  17.3838 0.956552 -4.06741
LeftToes  1.06243e-005 4.65856e-005 -8.18505e-006
434
root  10.6744 38.1268 -8.82842 167.517 -63.6632 -172.542
RightUpLeg  -20.7551 -17.7995 6.03031
RightLeg  32.1894 -1.29567 -1.14189
RightFoot  -4.88037 0.370169 -7.12087
RightToes  0.00048216 0.542163 -0.142577
Spine  16.4822 -4.36871 5.31313
Spine1  9.32301 -4.98462 6.75211
HEad  -13.2475 18.7444 -12.2224
LeftShoulder1  7.26308 -12.2379 -39.8964
LeftArm  -4.86365 5.48954 -26.4921
LeftForeArm  71.2132 -79.3323 -80.7777
LeftHand  -0.25398 0.0180481 5.50724
RightShoulder  4.46538 8.28308 31.9418
RightArm  -16.1582 -36.7055 21.4324
RightForeArm  80.6132 71.4168 139.388
RightHand  0.587708 -13.0574 -9.91263
LeftUpLeg  -3.77492 8.93757 8.21893
LeftLeg  65.1185 4.109 10.2799
LeftFoot  13.601 0.672173 -3.4614
LeftToes  1.06243e-005 4.65856e-005 -8.18505e-006
435
root  9.23966 38.6318 -9.73233 168.627 -63.7643 -174.037
RightUpLeg  -16.4638 -18.3996 4.5051
RightLeg  30.685 -0.831657 -0.78863
RightFoot  -7.01903 0.190809 -6.31837
RightToes  0.00048216 0.542163 -0.142577
Spine  16.3296 -3.4514 5.61059
Spine1  9.5289 -3.63769 5.51898
HEad  -11.9545 17.5196 -11.4933
LeftShoulder1  7.3049 -12.2575 -40.0934
LeftArm  -4.91326 6.74467 -25.6222
LeftForeArm  71.7094 -79.3421 -81.5039
LeftHand  -0.25398 0.0180481 5.50724
RightShoulder  4.50887 8.4341 31.8267
RightArm  -14.9544 -35.7943 21.158
RightForeArm  79.2317 71.8385 138.166
RightHand  0.604544 -13.1119 -10.0906
LeftUpLeg  -9.34652 9.35225 7.1057
LeftLeg  66.3807 3.12046 8.53257
LeftFoot  8.92015 0.776796 -4.64166
LeftToes  1.06243e-005 4.65856e-005 -8.18505e-006
436
root  7.77224 39.0635 -10.6084 170.059 -63.513 -175.524
RightUpLeg  -12.4285 -18.9104 3.06954
RightLeg  28.8648 -0.106222 -0.347433
RightFoot  -8.44945 0.0900558 -5.84077
RightToes  0.00048216 0.542163 -0.142577
Spine  15.7082 -2.56883 6.02316
Spine1  9.66399 -2.36976 4.28558
HEad  -10.3051 16.662 -11.2289
LeftShoulder1  7.30864 -12.2044 -40.2637
LeftArm  -5.38968 8.82855 -24.7024
LeftForeArm  74.633 -79.3956 -84.8734
LeftHand  -0.25398 0.0180481 5.50724
RightShoulder  4.50782 8.5289 31.5179
RightArm  -13.6412 -34.4987 21.2676
RightForeArm  78.0789 72.1797 137.119
RightHand  0.6248 -13.015 -10.5076
LeftUpLeg  -14.2721 10.1453 5.63392
LeftLeg  64.132 2.74012 6.81167
LeftFoot  6.47666 0.691083 -4.64034
LeftToes  1.06243e-005 4.65856e-005 -8.18505e-006
437
root  6.25556 39.5009 -11.4673 171.253 -63.3197 -176.655
RightUpLeg  -7.99805 -19.5194 1.50884
RightLeg  26.0644 0.788686 0.358745
RightFoot  -9.27026 0.034032 -5.3309
RightToes  0.00048216 0.542163 -0.142577
Spine  14.7917 -1.82272 6.66438
Spine1  9.60489 -1.22899 2.62577
HEad  -8.33612 15.8942 -11.1339
LeftShoulder1  7.27935 -12.1047 -40.3666
LeftArm  -5.93295 11.2722 -23.8353
LeftForeArm  78.3092 -79.4039 -89.3188
LeftHand  -0.25398 0.0180481 5.50724
RightShoulder  4.44176 8.4701 31.1474
RightArm  -12.1017 -33.0158 21.5146
RightForeArm  76.7527 72.4259 136.287
RightHand  0.657108 -12.458 -11.7825
LeftUpLeg  -18.1756 10.8245 3.92154
LeftLeg  58.7272 2.76689 5.45758
LeftFoot  4.41276 0.433801 -3.32598
LeftToes  1.06243e-005 4.65856e-005 -8.18505e-006
438
root  4.73721 39.8236 -12.3001 172.218 -63.2208 -177.37
RightUpLeg  -3.65318 -18.5672 -0.162967
RightLeg  23.165 0.0903075 1.2821
RightFoot  -10.354 -0.0314613 -4.37952
RightToes  0.00048216 0.542163 -0.142577
Spine  13.5158 -1.08113 7.35257
Spine1  9.63999 -0.184067 1.02762
HEad  -6.232 15.1079 -11.028
LeftShoulder1  7.22306 -11.9674 -40.4136
LeftArm  -6.51406 13.673 -23.2091
LeftForeArm  81.5192 -79.3468 -93.4346
LeftHand  -0.25398 0.0180481 5.50724
RightShoulder  4.39494 8.40299 30.9616
RightArm  -10.446 -31.4618 21.4933
RightForeArm  75.4306 72.6381 135.529
RightHand  0.677102 -11.7394 -13.3252
LeftUpLeg  -21.0436 11.7845 2.32875
LeftLeg  50.4439 2.97605 4.2889
LeftFoot  1.9202 0.333049 -2.98635
LeftToes  1.06243e-005 4.65856e-005 -8.18505e-006
439
root  3.20816 39.925 -13.1145 172.337 -63.372 -177.112
RightUpLeg  0.335876 -16.2372 -1.23308
RightLeg  20.8508 -2.25335 2.19972
RightFoot  -11.8301 -0.0949972 -3.40143
RightToes  0.00048216 0.542163 -0.142577
Spine  12.0346 -0.384765 8.21519
Spine1  9.87968 0.664252 0.0132763
HEad  -4.24393 14.2727 -10.8038
LeftShoulder1  7.16329 -11.8343 -40.4275
LeftArm  -7.27819 15.7791 -22.8767
LeftForeArm  84.6691 -79.2469 -97.3334
LeftHand  -0.25398 0.0180481 5.50724
RightShoulder  4.39369 8.41405 30.9163
RightArm  -8.93283 -29.9553 21.2481
RightForeArm  74.5041 72.8008 134.939
RightHand  0.704274 -11.568 -14.1518
LeftUpLeg  -22.5804 13.6831 0.989958
LeftLeg  39.3315 3.11756 3.10771
LeftFoot  0.483622 0.381618 -3.70836
LeftToes  1.06243e-005 4.65856e-005 -8.18505e-006
